# xmcd
#
# Track frame offsets:
#	150
#	21015
#	33600
#	75520
#	93840
#	115104
#	149867
#	163267
#	223457
#	248255
#	268145
#
# Disc length: 3970 seconds
#
# Revision: 0
# Processed by: cddbd v1.4PL0 Copyright (c) Steve Scherf et al.
# Submitted via: audiograbber 1.81.02
#
DISCID=9a0f800b
DTITLE=Savov Brown - Raw Live 'n' Blue
DYEAR=1981
DGENRE=Blues-Rock
TTITLE0=Street Corner Talkin'
TTITLE1=I'm Tired
TTITLE2=Hellbound Train
TTITLE3=Train To Nowhere
TTITLE4=I Can't Get Next To You
TTITLE5=All I Can Do Is Cry
TTITLE6=Needle And Spoon
TTITLE7=Tell Mama
TTITLE8=Wang Dang Doodle
TTITLE9=Louisiana Blues
TTITLE10=The Boogie
EXTD=Label :\nAkarma Records\n(Recorded live at the Rainbow Music Hall,\nDenver
EXTD=Colorado June 27, 1981
EXTT0=
EXTT1=
EXTT2=
EXTT3=
EXTT4=
EXTT5=
EXTT6=
EXTT7=
EXTT8=
EXTT9=
EXTT10=
PLAYORDER=
